<?xml version="1.0" encoding="utf-8"?>
<!-- Generator: Adobe Illustrator 22.1.0, SVG Export Plug-In . SVG Version: 6.00 Build 0)  -->
<svg version="1.1" xmlns="http://www.w3.org/2000/svg" xmlns:xlink="http://www.w3.org/1999/xlink" x="0px" y="0px"
	 viewBox="0 0 42 50" style="enable-background:new 0 0 42 50;" xml:space="preserve">
<style type="text/css">
	.st0{display:none;}
	.st1{display:inline;fill:#FFB8B8;}
	.st2{fill:#FFFFFF;}
</style>
<g id="Layer_2" class="st0">
	<rect x="-1.8" y="-0.8" class="st1" width="45" height="52"/>
</g>
<g id="Layer_4">
	<g>
		<path class="st2" d="M24.5,6.3C19.2,1,10.5,1,5.1,6.3c-5.3,5.3-5.3,14,0,19.4c4.8,4.8,12.2,5.3,17.5,1.6c0.1,0.5,0.4,1,0.8,1.5
			l10.7,10.7c1.1,1.1,3,1.1,4.1,0c1.1-1.1,1.1-3,0-4.1L27.5,24.6c-0.4-0.4-0.9-0.7-1.4-0.8C29.8,18.5,29.3,11.1,24.5,6.3z M22,23.3
			c-4,4-10.5,4-14.5,0c-4-4-4-10.5,0-14.5c4-4,10.5-4,14.5,0C26,12.8,26,19.3,22,23.3z"/>
	</g>
</g>
</svg>
